<?xml version="1.0" encoding="UTF-8"?>
<svg width="20px" height="20px" viewBox="0 0 20 20" version="1.1" xmlns="http://www.w3.org/2000/svg" xmlns:xlink="http://www.w3.org/1999/xlink">
    <!-- Generator: Sketch 55 (78076) - https://sketchapp.com -->
    <title>noun_Wrench_1003830</title>
    <desc>Created with Sketch.</desc>
    <g id="450" stroke="none" stroke-width="1" fill="none" fill-rule="evenodd" opacity="0.520252046">
        <g id="VD_V2" transform="translate(-456.000000, -14488.000000)" fill="#FFFFFF" fill-rule="nonzero">
            <g id="noun_Wrench_1003830" transform="translate(456.025424, 14488.000000)">
                <g id="Group">
                    <path d="M19.25,15.6659341 L11.6666667,8.08163265 C11.0416667,7.4599686 10.7083333,6.58963893 10.75,5.67786499 C10.8333333,4.144427 10.2916667,2.65243328 9.16666667,1.57488226 C8.20833333,0.53877551 6.83333333,0 5.375,0 C5.04166667,0 4.75,0.04144427 4.41666667,0.08288854 C4.29166667,0.12433281 4.16666667,0.20722135 4.125,0.37299843 C4.08333333,0.53877551 4.125,0.66310832 4.20833333,0.78744113 L6.75,3.3155416 L6.125,6.09230769 L3.33333333,6.71397174 L0.791666667,4.18587127 C0.666666667,4.06153846 0.5,4.02009419 0.375,4.10298273 C0.208333333,4.144427 0.125,4.26875981 0.0833333333,4.43453689 C-0.208333333,6.17519623 0.333333333,7.95729984 1.58333333,9.15918367 C2.66666667,10.2367347 4.16666667,10.8169545 5.70833333,10.7340659 C6.625,10.6926217 7.5,10.9827316 8.125,11.6458399 L15.7083333,19.188697 C16.1666667,19.644584 16.7916667,19.9346939 17.4583333,19.9346939 C18.125,19.9346939 18.75,19.6860283 19.2083333,19.188697 C20.25,18.1940345 20.25,16.6191523 19.25,15.6659341 Z M18.6666667,18.567033 C18.375,18.8985871 17.9583333,19.0643642 17.5,19.0643642 C17.0416667,19.0643642 16.625,18.8985871 16.3333333,18.567033 L8.75,11.0241758 C8,10.278179 7,9.86373626 5.91666667,9.86373626 C5.83333333,9.86373626 5.75,9.86373626 5.66666667,9.86373626 C4.375,9.9466248 3.08333333,9.44929356 2.16666667,8.53751962 C1.33333333,7.70863422 0.833333333,6.54819466 0.833333333,5.3877551 L2.91666667,7.4599686 C3,7.54285714 3.16666667,7.58430141 3.29166667,7.58430141 L6.58333333,6.83830455 C6.75,6.79686028 6.875,6.67252747 6.91666667,6.50675039 L7.66666667,3.23265306 C7.70833333,3.10832025 7.66666667,2.94254317 7.54166667,2.85965463 L5.45833333,0.8288854 C6.66666667,0.8288854 7.79166667,1.32621664 8.625,2.15510204 C9.54166667,3.06687598 10.0416667,4.35164835 9.95833333,5.63642072 C9.875,6.79686028 10.2916667,7.91585557 11.0833333,8.7032967 L18.6666667,16.2461538 C19.3333333,16.8678179 19.3333333,17.9453689 18.6666667,18.567033 Z" id="Shape"></path>
                    <path d="M16.8333333,16.121821 C16.6666667,15.956044 16.4166667,15.956044 16.25,16.121821 C16.0833333,16.2875981 16.0833333,16.5362637 16.25,16.7020408 L16.875,17.3237049 C16.9583333,17.4065934 17.0833333,17.4480377 17.1666667,17.4480377 C17.2916667,17.4480377 17.375,17.4065934 17.4583333,17.3237049 C17.625,17.1579278 17.625,16.9092622 17.4583333,16.7434851 L16.8333333,16.121821 Z" id="Path"></path>
                </g>
            </g>
        </g>
    </g>
</svg>