<?xml version="1.0" encoding="UTF-8"?>
<svg width="24px" height="20px" viewBox="0 0 24 20" version="1.1" xmlns="http://www.w3.org/2000/svg" xmlns:xlink="http://www.w3.org/1999/xlink">
    <!-- Generator: Sketch 55 (78076) - https://sketchapp.com -->
    <title>noun_wifi_1980347</title>
    <desc>Created with Sketch.</desc>
    <g id="450" stroke="none" stroke-width="1" fill="none" fill-rule="evenodd" opacity="0.520252046">
        <g id="VD_V2" transform="translate(-416.000000, -14486.000000)" fill="#FFFFFF" fill-rule="nonzero">
            <g id="noun_wifi_1980347" transform="translate(416.000000, 14486.000000)">
                <path d="M11.5254237,20 C10.0277024,20 8.81355932,18.7858569 8.81355932,17.2881356 C8.81355932,15.7904142 10.0277024,14.5762712 11.5254237,14.5762712 C13.0231451,14.5762712 14.2372881,15.7904142 14.2372881,17.2881356 C14.2355967,18.7851558 13.0224439,19.9983085 11.5254237,20 L11.5254237,20 Z M11.5254237,15.5624037 C10.5723283,15.5624037 9.79969183,16.3350402 9.79969183,17.2881356 C9.79969183,18.241231 10.5723283,19.0138675 11.5254237,19.0138675 C12.4785191,19.0138675 13.2511556,18.241231 13.2511556,17.2881356 C13.2500443,16.3355009 12.4780585,15.563515 11.5254237,15.5624037 Z" id="Shape"></path>
                <path d="M18.8369773,11.1864407 C18.3700087,11.1860627 17.921263,11.0079893 17.5845507,10.6894469 C15.9751257,9.2412762 13.8667109,8.4496062 11.6865166,8.4748462 C9.51275294,8.44964977 7.41013057,9.23681407 5.80259231,10.6776265 C5.44502893,11.014604 4.96283035,11.1926123 4.4683772,11.170165 C3.97392405,11.1477177 3.51041106,10.9267757 3.185864,10.5588316 C2.5113157,9.7935161 2.56252408,8.64245298 3.30245344,7.93813181 C5.57667299,5.8530052 8.57907986,4.71009506 11.6865267,4.74661154 C14.7998246,4.72660655 17.8042156,5.87361306 20.0898981,7.95482304 C20.8284844,8.66038674 20.8776214,9.81143288 20.2017733,10.5755228 C19.8567338,10.9622381 19.3597935,11.1846814 18.8369773,11.1864407 L18.8369773,11.1864407 Z M11.6865166,7.47671633 C14.1268816,7.45232319 16.4853553,8.3424665 18.2837807,9.96667856 C18.4411846,10.1174264 18.6549173,10.1973523 18.8742819,10.1874981 C19.0936465,10.1776438 19.2990982,10.0788873 19.4419041,9.91465354 C19.7614522,9.55454743 19.7390541,9.01125834 19.390914,8.67783338 C17.2942288,6.77247448 14.5397732,5.72383969 11.6865166,5.74473143 C8.83870542,5.70869496 6.08612575,6.75350395 3.99993962,8.66235987 C3.65128021,8.9952464 3.62790385,9.53844917 3.94671401,9.89917753 C4.08925425,10.0636173 4.29450431,10.1627236 4.51383452,10.1730153 C4.73316473,10.1833071 4.94705824,10.1038684 5.10483746,9.95352071 C6.90118929,8.33745624 9.25326967,7.45232603 11.6865166,7.47671633 L11.6865166,7.47671633 Z" id="Shape"></path>
                <path d="M21.2295786,7.11864407 C20.8085143,7.11733789 20.4012753,6.969222 20.0789015,6.70013419 C17.6629306,4.74066663 14.6311675,3.68596119 11.5124561,3.71999481 C8.40385484,3.68679011 5.38146163,4.73471545 2.96876957,6.68226508 C2.5936735,6.99468349 2.10614058,7.14085668 1.61968922,7.08674932 C1.13323786,7.03264196 0.690319685,6.78297589 0.394064882,6.39588399 C-0.224439664,5.59322007 -0.102283577,4.45004704 0.67206626,3.79426435 C3.72897622,1.31141595 7.56400088,-0.0306887437 11.5124561,0.00056306929 C15.474004,-0.0316508891 19.3211145,1.31930453 22.382218,3.81760023 C23.1549734,4.47529245 23.2744365,5.61874818 22.6541124,6.42007125 C22.3142473,6.86006953 21.7878648,7.11820068 21.2295786,7.11864407 Z M11.5124561,2.72422434 C14.8665351,2.69021143 18.1261508,3.82723706 20.7225169,5.93689603 C20.8902599,6.07165195 21.1054016,6.13394154 21.3197581,6.10981421 C21.5341146,6.08568688 21.7297736,5.97715878 21.8629147,5.80853624 C22.1565243,5.43156647 22.1019102,4.89227722 21.7385975,4.58096036 C18.8579216,2.23278712 15.2386542,0.964104991 11.5124561,0.996333541 C7.79855981,0.964960189 4.19064677,2.22535204 1.31397512,4.5590808 C0.949825973,4.86951268 0.893913916,5.40875896 1.18671851,5.78641271 C1.31939513,5.96057408 1.51814218,6.07308889 1.73660177,6.09771297 C1.94989317,6.12110721 2.16343123,6.05586721 2.32662766,5.91744864 C4.91965672,3.82079305 8.16922869,2.69116034 11.5124561,2.72422434 Z" id="Shape"></path>
                <path d="M16.1611989,15.2542373 L16.1609503,15.2542373 C15.5971493,15.254227 15.0666793,14.9902034 14.7309013,14.5424787 C13.9895546,13.6409493 12.8662154,13.1315666 11.6914033,13.164206 C10.5193331,13.1315239 9.39831547,13.6385372 8.65700439,14.5366023 C8.36521491,14.9237893 7.92552519,15.1756924 7.44062491,15.2334793 C6.96137663,15.2913024 6.47911667,15.1522274 6.10649014,14.8487389 C5.33110266,14.2096354 5.1973284,13.0824013 5.80203042,12.2832426 C7.21884528,10.4975764 9.39588047,9.46578812 11.6914207,9.49201355 C13.9917349,9.46573571 16.1727716,10.5017937 17.5892937,12.2936805 C18.1930038,13.0935748 18.0576117,14.2206863 17.2811918,14.8585674 C16.9646255,15.1132046 16.5693191,15.2528581 16.1611989,15.2542373 Z M11.6914207,12.181114 C13.1782663,12.1487064 14.5955053,12.802941 15.5248569,13.9507287 C15.6736681,14.1510051 15.9095838,14.2698411 16.1609552,14.2711454 C16.3410622,14.2709208 16.5154806,14.2087658 16.6543072,14.0953366 C17.0192351,13.7932956 17.0812137,13.2617455 16.7953679,12.885551 C15.5671479,11.3395064 13.6798091,10.4481713 11.6914207,10.4751055 C9.70735596,10.448211 7.82365575,11.3357267 6.59525513,12.876192 C6.30882723,13.2520377 6.37005945,13.7837522 6.73461529,14.0863364 C6.89842583,14.2202908 7.11056031,14.2821275 7.32168371,14.2574656 C7.5382405,14.2306466 7.73420026,14.1172176 7.86383438,13.9436479 C8.79337006,12.800142 10.2078374,12.1488055 11.6914207,12.181114 L11.6914207,12.181114 Z" id="Shape"></path>
            </g>
        </g>
    </g>
</svg>