<?xml version="1.0" encoding="utf-8"?>
<!-- Generator: Adobe Illustrator 19.0.0, SVG Export Plug-In . SVG Version: 6.00 Build 0)  -->
<svg version="1.1" id="Layer_1" xmlns="http://www.w3.org/2000/svg" xmlns:xlink="http://www.w3.org/1999/xlink" x="0px" y="0px"
	 viewBox="0 0 258 37.2" style="enable-background:new 0 0 258 37.2;" xml:space="preserve">
<style type="text/css">
	.st0{fill:#FFFFFF;}
</style>
<path id="XMLID_3_" class="st0" d="M22.3,2.5c8.2,0,12.4,4.1,12.4,12.4h-7.4c0-3.3-1.6-4.9-4.9-4.9h-9.9c-3.3,0-4.9,1.6-4.9,4.9v9.9
	c0,3.3,1.6,4.9,4.9,4.9h9.9c3.3,0,4.9-1.6,4.9-4.9h7.4c0,8.2-4.1,12.4-12.4,12.4h-9.9C4.1,37.2,0,33,0,24.8v-9.9
	C0,6.6,4.1,2.5,12.4,2.5H22.3z"/>
<polygon id="XMLID_2_" class="st0" points="62,14.8 72.5,33 72.5,33 74.9,37.2 83.4,37.2 62,0 40.5,37.2 49.1,37.2 51.5,33 51.5,33 
	"/>
<path id="XMLID_8_" class="st0" d="M114.1,2.5c6.6,0,9.9,3.3,9.9,9.9h-7.4c0-1.6-0.8-2.5-2.5-2.5H99.2c-1.6,0-2.5,0.8-2.5,2.5v1.2
	c0,1.6,0.8,2.5,2.5,2.5h14.8c6.6,0,9.9,3.3,9.9,9.9v1.2c0,6.6-3.3,9.9-9.9,9.9H99.2c-6.6,0-9.9-3.3-9.9-9.9h7.4
	c0,1.6,0.8,2.5,2.5,2.5h14.8c1.6,0,2.5-0.8,2.5-2.5V26c0-1.6-0.8-2.5-2.5-2.5H99.2c-6.6,0-9.9-3.3-9.9-9.9v-1.2
	c0-6.6,3.3-9.9,9.9-9.9H114.1z"/>
<polygon id="XMLID_5_" class="st0" points="164.2,37.2 172.8,37.2 151.3,0 129.9,37.2 138.4,37.2 140.5,33.5 151.3,14.8 "/>
<path id="XMLID_13_" class="st0" d="M205.9,24.5v-22h7.4v34.6h-5.2l-22-22v22h-7.4V2.5h5.2L205.9,24.5z"/>
<path id="XMLID_15_" class="st0" d="M223.3,24.8v-9.9c0-8.2,4.1-12.4,12.4-12.4h9.9c8.2,0,12.4,4.1,12.4,12.4v9.9
	c0,8.2-4.1,12.4-12.4,12.4h-9.9C227.5,37.2,223.3,33,223.3,24.8z M230.8,14.9v9.9c0,3.3,1.6,4.9,4.9,4.9h9.9c3.3,0,4.9-1.6,4.9-4.9
	v-9.9c0-3.3-1.6-4.9-4.9-4.9h-9.9C232.4,9.9,230.8,11.6,230.8,14.9z"/>
</svg>
