<svg width="337" height="337" xmlns="http://www.w3.org/2000/svg"><g fill="#FFF323" fill-rule="evenodd"><path d="M131.62 269.396c-.546 0-1.109-.052-1.654-.138-2.011-.362-3.358-2.31-3-4.345.358-2.034 2.284-3.396 4.295-3.034.716.12 1.45-.12 1.91-.69.545-.655.528-1.465.34-2.017-1.107-3.207-.46-6.776 1.705-9.362a9.396 9.396 0 0 1 8.881-3.207c.529.086 1.33-.034 1.892-.69.546-.655.546-1.465.358-2.017-.681-1.948.341-4.103 2.267-4.776 1.91-.69 4.057.345 4.722 2.294 1.108 3.206.46 6.776-1.705 9.362a9.441 9.441 0 0 1-8.863 3.224 2.033 2.033 0 0 0-1.91.69c-.545.655-.545 1.465-.357 2 1.108 3.206.46 6.793-1.705 9.362-1.773 2.138-4.432 3.344-7.176 3.344zm157.827 61.571a3.717 3.717 0 0 1-3.672-3.176c-.085-.561-.46-1.274-1.246-1.597-.768-.306-1.554-.051-2.015.306a9.578 9.578 0 0 1-9.34 1.29c-3.108-1.24-5.345-4.076-5.806-7.389a2.02 2.02 0 0 0-1.246-1.563 2.005 2.005 0 0 0-1.998.289 3.729 3.729 0 0 1-5.208-.646c-1.247-1.613-.956-3.94.649-5.18a9.572 9.572 0 0 1 9.357-1.309c3.108 1.257 5.345 4.077 5.823 7.39.102.73.563 1.325 1.246 1.58a2.037 2.037 0 0 0 2.015-.29c2.664-2.038 6.25-2.53 9.34-1.307 3.108 1.257 5.345 4.094 5.806 7.39a3.688 3.688 0 0 1-3.142 4.178c-.205.017-.393.034-.563.034zM172.212 99.245a3.698 3.698 0 0 1-3.55-2.66c-.598-1.973.512-4.066 2.474-4.65.717-.223 1.246-.772 1.417-1.493.205-.823-.17-1.544-.597-1.956a9.548 9.548 0 0 1-2.646-9.077c.785-3.294 3.26-5.937 6.503-6.88a2.075 2.075 0 0 0 1.382-1.476c.205-.84-.17-1.562-.58-1.956a3.754 3.754 0 0 1-.12-5.285 3.705 3.705 0 0 1 5.257-.12 9.579 9.579 0 0 1 2.662 9.111c-.768 3.243-3.26 5.885-6.468 6.864a1.982 1.982 0 0 0-1.4 1.458c-.204.841.171 1.562.58 1.956 2.424 2.351 3.448 5.834 2.663 9.094-.802 3.26-3.277 5.903-6.485 6.881a3.183 3.183 0 0 1-1.093.189zm135.44-35.233c-1.66 0-3.168-1.151-3.574-2.852a2.034 2.034 0 0 0-1.373-1.495 1.998 1.998 0 0 0-1.948.481c-2.457 2.32-5.947 3.145-9.116 2.182-3.185-.945-5.676-3.591-6.438-6.89a2.104 2.104 0 0 0-1.373-1.46 1.99 1.99 0 0 0-1.965.48 3.637 3.637 0 0 1-5.202-.171 3.784 3.784 0 0 1 .17-5.293c2.44-2.32 5.913-3.179 9.115-2.2 3.169.946 5.643 3.575 6.439 6.857.17.739.695 1.289 1.372 1.495.814.258 1.56-.086 1.983-.481 2.423-2.303 5.913-3.162 9.099-2.2 3.185.962 5.642 3.592 6.438 6.874.491 2.01-.728 4.02-2.694 4.519-.339.12-.644.154-.932.154zm23.475 134.833a9.447 9.447 0 0 1-7.421-3.624c-2.064-2.623-2.593-6.23-1.382-9.405.222-.57.256-1.346-.273-2.019-.546-.707-1.348-.845-1.893-.776a9.463 9.463 0 0 1-8.77-3.538c-2.08-2.657-2.592-6.264-1.364-9.421.75-1.933 2.917-2.882 4.811-2.123 1.91.76 2.849 2.934 2.098 4.867-.204.534-.238 1.346.29 2.019.444.569 1.11.845 1.894.742 3.31-.484 6.67.88 8.752 3.554 2.081 2.623 2.627 6.247 1.365 9.422-.188.5-.222 1.329.307 2.002.528.69 1.347.845 1.876.759 2.047-.345 3.907 1.122 4.197 3.175.29 2.054-1.109 3.952-3.14 4.245-.443.086-.903.12-1.347.12zM80.789 58.592c-.462 0-.924-.086-1.37-.259-1.916-.757-2.84-2.945-2.088-4.874a2.029 2.029 0 0 0-.273-2.015c-.514-.672-1.318-.827-1.883-.74-3.355.447-6.727-.914-8.78-3.583-2.088-2.635-2.602-6.253-1.335-9.421.205-.5.24-1.327-.291-1.998-.53-.69-1.318-.827-1.883-.758-2.054.293-3.92-1.137-4.21-3.187a3.745 3.745 0 0 1 3.166-4.237 9.467 9.467 0 0 1 8.797 3.548c2.054 2.636 2.585 6.236 1.352 9.404a2.029 2.029 0 0 0 .274 2.016c.548.706 1.335.844 1.9.775 3.338-.483 6.675.895 8.746 3.548a9.671 9.671 0 0 1 1.352 9.421 3.74 3.74 0 0 1-3.474 2.36zM28.645 333h-.17c-2.044-.104-3.628-1.86-3.525-3.926a2.056 2.056 0 0 0-.92-1.825c-.698-.448-1.498-.344-1.992-.086-3.031 1.532-6.624 1.343-9.417-.5-2.81-1.807-4.478-5.061-4.291-8.47.017-.534-.205-1.326-.92-1.79a1.97 1.97 0 0 0-2.01-.087 3.682 3.682 0 0 1-4.988-1.618c-.937-1.843-.222-4.098 1.6-5.045a9.403 9.403 0 0 1 9.417.465c2.793 1.825 4.445 5.062 4.291 8.437-.034.757.307 1.429.903 1.807a2.028 2.028 0 0 0 2.06.104 9.348 9.348 0 0 1 9.366.482 9.58 9.58 0 0 1 4.291 8.47c-.085 2.032-1.737 3.582-3.695 3.582zM5.885 164.29c-1.62 0-3.105-1.108-3.544-2.787-.861-3.305.05-6.853 2.397-9.258a9.253 9.253 0 0 1 8.998-2.51 1.948 1.948 0 0 0 1.925-.518c.607-.623.658-1.437.523-2.008-.844-3.305.067-6.835 2.397-9.24a9.264 9.264 0 0 1 8.998-2.51c1.958.52 3.14 2.579 2.634 4.586-.507 2.008-2.533 3.22-4.474 2.7-.557-.138-1.35-.086-1.942.536-.506.52-.692 1.264-.506 1.99.844 3.289-.068 6.819-2.414 9.224a9.165 9.165 0 0 1-8.998 2.51 2.029 2.029 0 0 0-1.925.536c-.59.623-.641 1.419-.506 1.99.523 2.007-.642 4.066-2.6 4.603a2.791 2.791 0 0 1-.962.156zm126.893 134.839c0 9.025-13.48 9.025-13.48 0 0-9.043 13.48-9.043 13.48 0zm34.374-102.988c0 9.026-13.48 9.026-13.48 0 0-9.043 13.48-9.043 13.48 0zM121.994 74.176c0 9.034-13.48 9.034-13.48 0 0-9.035 13.48-9.035 13.48 0zm128.06 21.004c0 9.034-13.48 9.034-13.48 0s13.48-9.034 13.48 0zm43.81 132.115c0 9.043-13.48 9.043-13.48 0 0-9.025 13.48-9.025 13.48 0zM337 7.77c0 9.043-13.48 9.043-13.48 0 0-9.025 13.48-9.025 13.48 0zm-130.756 0c0 9.043-13.48 9.043-13.48 0 0-9.025 13.48-9.025 13.48 0zm21.568 276.454c0 9.025-13.48 9.025-13.48 0 0-9.043 13.48-9.043 13.48 0zM53.246 232.038c0 9.043-13.48 9.043-13.48 0 0-9.025 13.48-9.025 13.48 0zm0-132.116c0 9.034-13.48 9.034-13.48 0s13.48-9.034 13.48 0zM203.532 337c-.41 0-.82-.016-1.248-.065-3.33-.31-6.32-1.84-8.439-4.299-2.118-2.475-3.11-5.585-2.785-8.761.12-1.14 1.196-1.922 2.392-1.873l20.569 1.938c.58.065 1.11.326 1.486.765.376.424.547.977.478 1.531-.649 6.14-5.996 10.764-12.454 10.764zm-8.047-10.601c.24 1.302.82 2.54 1.726 3.599 1.384 1.612 3.331 2.589 5.5 2.8 3.844.408 7.142-1.758 8.423-4.917l-15.649-1.482zM302.314 297c-1.264 0-2.528-.19-3.758-.573a2.205 2.205 0 0 1-1.454-2.776l6.182-20.076a2.267 2.267 0 0 1 1.073-1.319 2.217 2.217 0 0 1 1.697-.156c6.684 2.082 10.442 9.214 8.381 15.912-1.645 5.379-6.51 8.988-12.121 8.988zm-.242-4.46h.242a8.21 8.21 0 0 0 7.879-5.83c1.125-3.626-.398-7.461-3.429-9.404l-4.692 15.235zM77.915 291c-.423 0-.864-.122-1.236-.402l-16.765-12.152a2.132 2.132 0 0 1-.881-1.45 2.257 2.257 0 0 1 .373-1.676c3.793-5.57 11.888-7.036 17.307-3.108 2.71 1.956 4.521 4.89 5.097 8.26a13.05 13.05 0 0 1-2.083 9.585c-.457.594-1.134.943-1.812.943zm-13.497-14.754l12.735 9.219a8.5 8.5 0 0 0 .339-4.225c-.373-2.183-1.541-4.086-3.32-5.36-2.912-2.13-7.061-1.904-9.754.366zM79.104 179c-4.3 0-8.3-2.116-10.714-5.63a2.234 2.234 0 0 1 .599-3.112l17.657-11.872a2.314 2.314 0 0 1 1.692-.35c.582.105 1.11.455 1.445.945 4 5.857 2.432 13.847-3.454 17.799a12.8 12.8 0 0 1-7.225 2.22zm-5.445-6.47c2.749 2.308 7.084 2.623 10.15.543 3.19-2.151 4.44-6.102 3.26-9.564l-13.41 9.022zM26.553 16a11.87 11.87 0 0 1-1.73-.119 12.425 12.425 0 0 1-8.27-4.794c-2.037-2.642-2.893-5.912-2.43-9.215.17-1.186 1.25-2.033 2.465-1.846l20.53 2.795a2.16 2.16 0 0 1 1.438.83c.342.457.497 1.033.428 1.61C38.111 11.391 32.77 16 26.554 16zM18.437 4.667a7.998 7.998 0 0 0 1.592 3.812 8.103 8.103 0 0 0 5.377 3.117 8.176 8.176 0 0 0 8.63-4.794l-15.6-2.135zM207.4 163c-3.77 0-7.305-1.726-9.655-4.713-2.08-2.624-3.027-5.92-2.672-9.287.355-3.367 1.962-6.388 4.549-8.511a2.141 2.141 0 0 1 3.044.328l12.851 16.262c.372.448.524 1.035.474 1.622-.068.587-.339 1.122-.795 1.485-2.232 1.813-4.988 2.814-7.796 2.814zm-6.577-17.453a8.048 8.048 0 0 0-1.455 3.919 8.182 8.182 0 0 0 1.742 6.025c1.539 1.95 3.839 3.073 6.29 3.073a7.757 7.757 0 0 0 3.196-.674l-9.773-12.343zM301.293 133c-4.5 0-8.705-2.479-10.982-6.484-.626-1.096-.278-2.497.782-3.144l18.106-11.046a2.139 2.139 0 0 1 1.685-.251c.574.143 1.06.539 1.356 1.06 3.562 6.268 1.546 14.35-4.5 18.033a12.277 12.277 0 0 1-6.447 1.832zm-5.77-7.005c1.53 1.509 3.598 2.407 5.77 2.407 1.477 0 2.92-.413 4.188-1.186 3.284-1.993 4.743-5.98 3.805-9.609l-13.762 8.388zM251.337 35c-6.58 0-12-5.22-12.32-11.89a12.52 12.52 0 0 1 3.164-9.008c2.221-2.474 5.251-3.941 8.55-4.095 1.33-.102 2.205.87 2.255 2.082l1.01 20.625a2.147 2.147 0 0 1-.555 1.57 2.2 2.2 0 0 1-1.498.716h-.606zm-2.525-20.233a8.114 8.114 0 0 0-3.433 2.27 8.09 8.09 0 0 0-2.054 5.85c.186 3.737 2.811 6.773 6.261 7.558l-.774-15.678z"/></g></svg>