<svg width="21" height="36" xmlns="http://www.w3.org/2000/svg"><path d="M10.18 0C4.622 0 .002 4.508.002 10.066v15.867C.002 31.493 4.62 36 10.18 36c5.56 0 10.067-4.508 10.067-10.067V10.066C20.247 4.508 15.739 0 10.18 0zm7.818 25.933c0 4.31-3.507 7.817-7.817 7.817-4.31 0-7.928-3.507-7.928-7.817V10.066c0-4.31 3.618-7.816 7.928-7.816 4.31 0 7.817 3.507 7.817 7.816v15.867zM10.138 6.75c-.622 0-1.126.504-1.126 1.125V13.5a1.125 1.125 0 0 0 2.25 0V7.875c0-.621-.504-1.125-1.125-1.125z" fill="#FFF" fill-rule="nonzero"/></svg>