<svg width="232" height="265" xmlns="http://www.w3.org/2000/svg" xmlns:xlink="http://www.w3.org/1999/xlink"><defs><linearGradient x1="52.317%" y1="15.313%" x2="43.826%" y2="96.308%" id="c"><stop stop-color="#FFBD00" offset="0%"/><stop stop-color="#FBF363" offset="15.483%"/><stop stop-color="#FEEA00" offset="100%"/><stop stop-color="#FFF100" offset="100%"/></linearGradient><path id="b" d="M0 0h164v179.1L81.639 199 0 179.1z"/><filter x="-31.7%" y="-25.1%" width="163.4%" height="152.3%" filterUnits="objectBoundingBox" id="a"><feOffset dy="2" in="SourceAlpha" result="shadowOffsetOuter1"/><feGaussianBlur stdDeviation="17" in="shadowOffsetOuter1" result="shadowBlurOuter1"/><feComposite in="shadowBlurOuter1" in2="SourceAlpha" operator="out" result="shadowBlurOuter1"/><feColorMatrix values="0 0 0 0 0.142560686 0 0 0 0 0.199069136 0 0 0 0 0.430484694 0 0 0 0.632840806 0" in="shadowBlurOuter1"/></filter></defs><g fill="none" fill-rule="evenodd"><g transform="translate(34 32)"><use fill="#000" filter="url(#a)" xlink:href="#b"/><use fill="#FFF323" xlink:href="#b"/><path stroke="#F4FBFD" stroke-width="7" d="M3.5 3.5v172.85l78.142 19.048 78.858-19.053V3.5H3.5z" stroke-linejoin="square" fill="url(#c)"/></g><path d="M45 46v155.837l70.684 17.269L187 201.835V46H45z" stroke="#FFF" stroke-width="2"/><path d="M159.554 144.803c-3.75 9.755-2.746 12.008 7.01 15.751-9.756-3.744-12.005-2.742-15.75 7.01 3.75-9.755 2.745-12.007-7.01-15.75 9.758 3.747 12.007 2.745 15.75-7.01zm-35.529-46.97c29.266 1.145 34.35-3.544 35.478-32.808-1.128 29.264 3.542 34.334 32.823 35.476-29.283-1.15-34.35 3.544-35.494 32.817 1.144-29.274-3.543-34.343-32.81-35.487l.003.002zm-66.896 14.02c8.297 6.822 10.818 6.58 17.641-1.718-6.822 8.297-6.573 10.818 1.718 17.636-8.29-6.813-10.818-6.574-17.635 1.728 6.822-8.303 6.573-10.823-1.724-17.646z" fill="#FFF"/></g></svg>